<?xml version="1.0" encoding="UTF-8" standalone="no"?>
<!-- Created with Inkscape (http://www.inkscape.org/) -->

<svg
   width="48"
   height="48"
   viewBox="0 0 12.7 12.7"
   version="1.1"
   id="svg1"
   xml:space="preserve"
   sodipodi:docname="Documento sin nombre 1"
   xmlns:inkscape="http://www.inkscape.org/namespaces/inkscape"
   xmlns:sodipodi="http://sodipodi.sourceforge.net/DTD/sodipodi-0.dtd"
   xmlns="http://www.w3.org/2000/svg"
   xmlns:svg="http://www.w3.org/2000/svg"><sodipodi:namedview
     id="namedview1"
     pagecolor="#ffffff"
     bordercolor="#000000"
     borderopacity="0.25"
     inkscape:showpageshadow="2"
     inkscape:pageopacity="0.0"
     inkscape:pagecheckerboard="0"
     inkscape:deskcolor="#5b5b5b"
     inkscape:document-units="px" /><defs
     id="defs1" /><g
     inkscape:label="Capa 1"
     inkscape:groupmode="layer"
     id="layer1"><g
       id="g4"
       transform="matrix(1.0006874,0,0,1.0018441,-0.71043339,0.45577161)"
       style="fill:#ff006e;fill-opacity:1"><path
         id="path13"
         style="fill:#ff006e;fill-opacity:1;stroke:none;stroke-width:1.76716"
         d="m 7.015412,-0.45396679 c -0.086078,-0.00196 -0.1718042,-8.7059e-4 -0.2571522,0.002665 -1.9921547,0.082592 -3.9587374,1.23254695 -5.0144706,2.81059209 -2.0065132,2.9992107 -0.97907833,6.8791241 2.1032057,8.8254157 0.5587754,0.352842 1.1368043,0.654197 1.7869271,0.825496 0.9115475,0.240185 1.867766,0.264995 2.7967664,0.128843 0.7832128,-0.114777 1.5730706,-0.397346 2.2486746,-0.788174 0.721976,-0.417647 1.37239,-0.927661 1.888287,-1.5674619 0.387625,-0.4807333 0.634406,-1.0475843 0.758319,-1.6376607 0.01616,-0.076666 0.155606,-0.6265419 0.0084,-0.60246 -0.128345,0.020841 -0.227228,0.3915643 -0.274046,0.4931643 -0.186081,0.402338 -0.418862,0.9289868 -0.794991,1.2013679 0.359777,-0.779531 0.626441,-1.6480216 0.68887,-2.5111387 0.02837,-0.3923039 -0.02629,-0.7826882 -0.02629,-1.1738197 -0.230264,0.068649 -0.260388,0.5137613 -0.326602,0.7099786 -0.176688,0.5235826 -0.423901,1.3584316 -0.884078,1.7194104 L 11.660057,7.8187518 C 10.833521,9.097238 9.3253214,10.216418 7.6808173,10.297012 4.6847084,10.443842 2.1914794,7.6777773 2.7113953,4.8979754 2.850692,4.1531969 3.1829895,3.4413844 3.5907812,2.7955853 5.0562005,0.47489525 8.6683019,0.52551487 10.617423,2.178908 c 0.948651,0.8047211 1.461844,2.0070145 1.618932,3.1829084 h 0.0291 C 12.265444,3.3540947 10.823312,1.7961831 8.9496858,1.0370773 8.5906307,0.89160672 8.2181984,0.63098907 7.8253481,0.58923097 7.1449375,0.51690679 6.4113235,0.56009431 5.7493592,0.7322931 5.367342,0.83166872 4.9743218,1.033748 4.5959278,1.1028328 4.7463925,0.9109757 5.0039872,0.81697097 5.2303618,0.72518445 5.7933162,0.49693153 6.4327908,0.34145449 7.0473216,0.33865032 7.3155835,0.33742644 8.0200135,0.47582258 8.1134713,0.20269685 9.3048661,0.52043076 10.613361,0.87931527 11.478976,1.7861539 c 0.351935,0.3686933 0.673333,0.768197 0.933821,1.2004772 0.136443,0.2264231 0.219765,0.5673311 0.428899,0.7375248 0.08341,-0.3791915 -0.343628,-0.8676542 -0.489904,-1.2013658 l 0.08633,0.054206 C 12.397201,2.3284504 12.202849,2.1105172 12.03739,1.9221072 11.657,1.4889529 11.2005,1.1008716 10.737552,0.74828752 10.174598,0.31953893 9.4973897,0.04317225 8.8060933,-0.14473949 8.2351165,-0.29994584 7.6179547,-0.44025107 7.015412,-0.45396679 Z" /></g><path
       style="fill:#000000;stroke-width:1.34292"
       d="M 3.2699538,6.5034706 C 3.1332557,6.4198942 3.1420411,6.5302711 3.1420411,4.8962772 V 3.4056001 l 0.079635,-0.072981 c 0.065655,-0.060169 0.096233,-0.072981 0.1742447,-0.072981 0.097912,0 0.2007847,0.062663 0.2481453,0.1511584 0.029987,0.056021 0.027624,2.9219547 -0.00242,2.9879778 C 3.608906,6.4706426 3.4914355,6.5427434 3.4072455,6.5426519 3.3669315,6.542608 3.3051704,6.5249769 3.2699928,6.5034699 Z m 2.4876855,-0.00392 C 5.6345343,6.4244923 5.6256844,6.3738698 5.6256844,5.7449133 V 5.1802307 L 5.0304411,5.1739459 4.4351977,5.167661 4.378191,5.1143647 C 4.3096486,5.0502768 4.2612767,4.9621716 4.2612767,4.9013862 c 0,-0.08202 0.080239,-0.2061499 0.1567196,-0.2424416 0.062419,-0.029618 0.1595626,-0.034912 0.6406272,-0.034912 H 5.6256791 V 4.0473762 c 0,-0.4674355 0.00604,-0.5882233 0.031559,-0.6376812 C 5.7636776,3.2038618 6.0459303,3.2079243 6.138245,3.416625 6.175994,3.501962 6.177794,3.5805084 6.172946,4.9340749 6.168916,6.0460054 6.1618,6.372385 6.140568,6.4106382 6.071797,6.534455 5.8857431,6.5776578 5.757641,6.4995552 Z m 2.2835503,0.00149 C 7.8974613,6.4134025 7.9053228,6.5117295 7.9116922,4.8813119 l 0.00577,-1.4757249 0.079635,-0.07297 c 0.065319,-0.059854 0.096421,-0.07297 0.1730052,-0.07297 0.062405,0 0.1121469,0.014764 0.1499701,0.04452 0.124072,0.097591 0.1197076,0.03853 0.1197076,1.6197948 v 1.4532446 l -0.082764,0.082767 c -0.06767,0.067665 -0.097818,0.082753 -0.1652203,0.082687 -0.04535,-4.39e-5 -0.1131138,-0.018773 -0.1505826,-0.04162 z M 10.281703,6.4814387 C 10.134744,6.3730896 9.0884988,5.2989825 9.0594717,5.2266588 c -0.037239,-0.092777 -0.01351,-0.2047296 0.061103,-0.2882226 0.05963,-0.066736 0.06301,-0.067606 0.313308,-0.080697 0.283818,-0.014842 0.383799,-0.050507 0.488152,-0.1741303 C 10.109069,4.4620358 10.101893,4.1731264 9.9042278,3.9666757 9.7928998,3.850406 9.7304838,3.8283746 9.4701928,3.8134862 9.2080018,3.7984885 9.1498798,3.7754548 9.0783933,3.6582139 9.0004371,3.5303549 9.0488895,3.3624843 9.1839198,3.2926581 c 0.0769,-0.039765 0.410545,-0.045185 0.581888,-0.00945 0.3593802,0.074944 0.6588232,0.3466096 0.7844152,0.7116504 0.05129,0.1490813 0.05767,0.4539695 0.01303,0.6217273 -0.0686,0.2576079 -0.267376,0.5120025 -0.500326,0.6402938 -0.07781,0.042852 -0.1455322,0.081144 -0.1504892,0.085091 -0.005,0.00395 0.1581332,0.1748243 0.3624192,0.3797262 0.204287,0.2049018 0.388219,0.4037582 0.408739,0.441903 0.04904,0.091169 0.04708,0.1557589 -0.0074,0.2439 -0.08995,0.1455441 -0.255311,0.1765402 -0.39447,0.073942 z"
       id="path4" /><text
       xml:space="preserve"
       style="font-size:2.15068px;fill:#b3b3b3;fill-opacity:1;stroke-width:0.179223"
       x="4.4291134"
       y="9.325531"
       id="text4"><tspan
         sodipodi:role="line"
         id="tspan4"
         x="4.4291134"
         y="9.325531"
         style="fill:#b3b3b3;fill-opacity:1;stroke-width:0.179223">.dev</tspan></text></g></svg>
